<?xml version="1.0" encoding="utf-8"?>
<!-- Generator: Adobe Illustrator 25.1.0, SVG Export Plug-In . SVG Version: 6.00 Build 0)  -->
<svg version="1.1" id="Calque_1" xmlns="http://www.w3.org/2000/svg" xmlns:xlink="http://www.w3.org/1999/xlink" x="0px" y="0px"
	 viewBox="0 0 21.4 21.4" style="enable-background:new 0 0 21.4 21.4;" xml:space="preserve">
<style type="text/css">
	.st0{fill:#8D1558;}
</style>
<g>
	<path class="st0" d="M20.7,17.1l-3.6-3.6c-0.1-0.1-0.1-0.1-0.2-0.2c1.9-3.4,1.4-7.8-1.5-10.7c-3.5-3.5-9.2-3.5-12.7,0
		c-3.5,3.5-3.5,9.2,0,12.7C4.3,17.1,6.6,18,9,18c1.6,0,3-0.4,4.4-1.1c0.1,0.1,0.1,0.1,0.2,0.2l3.6,3.6c0.5,0.5,1.1,0.7,1.8,0.7
		s1.3-0.2,1.8-0.7C21.6,19.7,21.6,18.1,20.7,17.1z M9,14c-1.3,0-2.6-0.5-3.5-1.5c-1.9-1.9-1.9-5.1,0-7.1C6.4,4.5,7.7,4,9,4
		s2.6,0.5,3.5,1.5c1.9,1.9,1.9,5.1,0,7.1C11.6,13.5,10.3,14,9,14z"/>
</g>
</svg>
